<mxfile host="Electron" modified="2024-09-04T19:26:46.511Z" agent="Mozilla/5.0 (X11; Linux x86_64) AppleWebKit/537.36 (KHTML, like Gecko) draw.io/24.6.4 Chrome/124.0.6367.207 Electron/30.0.6 Safari/537.36" etag="-z--EWMbe91Ncq3hUgT1" version="24.6.4" type="device">
  <diagram name="Página-1" id="oinIF-td0bnsXT2gxYEK">
    <mxGraphModel dx="1834" dy="1275" grid="0" gridSize="10" guides="1" tooltips="1" connect="1" arrows="1" fold="1" page="0" pageScale="1" pageWidth="827" pageHeight="1169" math="0" shadow="0">
      <root>
        <mxCell id="0" />
        <mxCell id="1" parent="0" />
        <mxCell id="uxgWOtZFFa0mFMytvNgW-1" value="Sistema de gestão de venda e arrendamento de imóveis" style="shape=umlFrame;whiteSpace=wrap;html=1;pointerEvents=0;recursiveResize=0;container=1;collapsible=0;width=382;height=31;fillColor=#ffe6cc;strokeColor=#d79b00;" parent="1" vertex="1">
          <mxGeometry x="-271" y="-207" width="1109" height="1094" as="geometry" />
        </mxCell>
        <mxCell id="uxgWOtZFFa0mFMytvNgW-6" value="Criar&lt;div&gt;Conta&lt;/div&gt;" style="ellipse;whiteSpace=wrap;html=1;fillColor=#d80073;strokeColor=#A50040;fontColor=#ffffff;" parent="uxgWOtZFFa0mFMytvNgW-1" vertex="1">
          <mxGeometry x="806" y="516" width="140" height="70" as="geometry" />
        </mxCell>
        <mxCell id="uxgWOtZFFa0mFMytvNgW-9" value="Cadatrar&lt;div&gt;Funcionario&lt;/div&gt;" style="ellipse;whiteSpace=wrap;html=1;fillColor=#fff2cc;strokeColor=#d6b656;" parent="uxgWOtZFFa0mFMytvNgW-1" vertex="1">
          <mxGeometry x="205" y="167" width="140" height="70" as="geometry" />
        </mxCell>
        <mxCell id="uxgWOtZFFa0mFMytvNgW-18" value="Solicitar&lt;div&gt;&lt;span style=&quot;background-color: initial;&quot;&gt;PublicacaoImovel&lt;/span&gt;&lt;/div&gt;" style="ellipse;whiteSpace=wrap;html=1;fillColor=#e1d5e7;strokeColor=#9673a6;" parent="uxgWOtZFFa0mFMytvNgW-1" vertex="1">
          <mxGeometry x="812" y="6" width="140" height="70" as="geometry" />
        </mxCell>
        <mxCell id="uxgWOtZFFa0mFMytvNgW-19" value="&lt;span&gt;Validar&lt;/span&gt;&lt;div&gt;&lt;span&gt;PedidoPublicacaoImovel&lt;/span&gt;&lt;/div&gt;" style="ellipse;whiteSpace=wrap;html=1;fillColor=#f8cecc;strokeColor=#b85450;fontStyle=0" parent="uxgWOtZFFa0mFMytvNgW-1" vertex="1">
          <mxGeometry x="211" y="351" width="140" height="70" as="geometry" />
        </mxCell>
        <mxCell id="uxgWOtZFFa0mFMytvNgW-22" value="Ver&lt;div&gt;PublicacaoImovel&lt;/div&gt;" style="ellipse;whiteSpace=wrap;html=1;fillColor=#d80073;strokeColor=#A50040;fontColor=#ffffff;" parent="uxgWOtZFFa0mFMytvNgW-1" vertex="1">
          <mxGeometry x="959" y="365" width="140" height="70" as="geometry" />
        </mxCell>
        <mxCell id="uxgWOtZFFa0mFMytvNgW-25" value="Ver&lt;div&gt;NotificacoesCorretor&lt;/div&gt;" style="ellipse;whiteSpace=wrap;html=1;fillColor=#dae8fc;strokeColor=#6c8ebf;fontStyle=0" parent="uxgWOtZFFa0mFMytvNgW-1" vertex="1">
          <mxGeometry x="662" y="170" width="140" height="70" as="geometry" />
        </mxCell>
        <mxCell id="uxgWOtZFFa0mFMytvNgW-31" value="&lt;span&gt;Ver&lt;/span&gt;&lt;div&gt;&lt;span&gt;ComentarioPublicacao&lt;/span&gt;&lt;/div&gt;" style="ellipse;whiteSpace=wrap;html=1;fillColor=#dae8fc;strokeColor=#6c8ebf;fontStyle=0" parent="uxgWOtZFFa0mFMytvNgW-1" vertex="1">
          <mxGeometry x="528" y="906" width="140" height="70" as="geometry" />
        </mxCell>
        <mxCell id="uxgWOtZFFa0mFMytvNgW-34" value="&lt;span&gt;Notificar&lt;/span&gt;&lt;div&gt;&lt;span&gt;ProprietarioImovel&lt;/span&gt;&lt;/div&gt;" style="ellipse;whiteSpace=wrap;html=1;fillColor=#f8cecc;strokeColor=#b85450;fontStyle=0" parent="uxgWOtZFFa0mFMytvNgW-1" vertex="1">
          <mxGeometry x="19" y="237" width="140" height="70" as="geometry" />
        </mxCell>
        <mxCell id="uxgWOtZFFa0mFMytvNgW-36" value="&amp;lt;&amp;lt;include&amp;gt;&amp;gt;" style="html=1;verticalAlign=bottom;labelBackgroundColor=none;endArrow=open;endFill=0;dashed=1;rounded=0;exitX=0;exitY=0;exitDx=0;exitDy=0;" parent="uxgWOtZFFa0mFMytvNgW-1" source="uxgWOtZFFa0mFMytvNgW-19" target="uxgWOtZFFa0mFMytvNgW-34" edge="1">
          <mxGeometry width="160" relative="1" as="geometry">
            <mxPoint x="338" y="303" as="sourcePoint" />
            <mxPoint x="498" y="303" as="targetPoint" />
          </mxGeometry>
        </mxCell>
        <mxCell id="uxgWOtZFFa0mFMytvNgW-37" value="&lt;span&gt;Rejeitar&lt;/span&gt;&lt;div&gt;&lt;span&gt;PedidoPublicacaoImovel&lt;/span&gt;&lt;/div&gt;" style="ellipse;whiteSpace=wrap;html=1;fillColor=#f8cecc;strokeColor=#b85450;fontStyle=0" parent="uxgWOtZFFa0mFMytvNgW-1" vertex="1">
          <mxGeometry x="19" y="371" width="140" height="70" as="geometry" />
        </mxCell>
        <mxCell id="uxgWOtZFFa0mFMytvNgW-39" value="&amp;lt;&amp;lt;include&amp;gt;&amp;gt;" style="html=1;verticalAlign=bottom;labelBackgroundColor=none;endArrow=open;endFill=0;dashed=1;rounded=0;exitX=0.5;exitY=0;exitDx=0;exitDy=0;entryX=0.5;entryY=1;entryDx=0;entryDy=0;" parent="uxgWOtZFFa0mFMytvNgW-1" source="uxgWOtZFFa0mFMytvNgW-37" target="uxgWOtZFFa0mFMytvNgW-34" edge="1">
          <mxGeometry width="160" relative="1" as="geometry">
            <mxPoint x="143" y="306" as="sourcePoint" />
            <mxPoint x="144" y="215" as="targetPoint" />
          </mxGeometry>
        </mxCell>
        <mxCell id="uxgWOtZFFa0mFMytvNgW-41" value="&lt;span&gt;Remover&lt;/span&gt;&lt;div&gt;&lt;span&gt;ComentarioPublicacao&lt;/span&gt;&lt;br&gt;&lt;/div&gt;" style="ellipse;whiteSpace=wrap;html=1;fillColor=#dae8fc;strokeColor=#6c8ebf;fontStyle=0" parent="uxgWOtZFFa0mFMytvNgW-1" vertex="1">
          <mxGeometry x="338" y="1021" width="140" height="70" as="geometry" />
        </mxCell>
        <mxCell id="uxgWOtZFFa0mFMytvNgW-42" value="&lt;span&gt;Editar&lt;/span&gt;&lt;div&gt;&lt;span&gt;ComentarioPublicacao&lt;/span&gt;&lt;br&gt;&lt;/div&gt;" style="ellipse;whiteSpace=wrap;html=1;fillColor=#dae8fc;strokeColor=#6c8ebf;fontStyle=0" parent="uxgWOtZFFa0mFMytvNgW-1" vertex="1">
          <mxGeometry x="528" y="1020" width="140" height="70" as="geometry" />
        </mxCell>
        <mxCell id="uxgWOtZFFa0mFMytvNgW-56" value="&lt;div&gt;&lt;span&gt;Responder&lt;/span&gt;&lt;/div&gt;&lt;div&gt;&lt;span&gt;ComentarioPublicacao&lt;/span&gt;&lt;br&gt;&lt;/div&gt;" style="ellipse;whiteSpace=wrap;html=1;fillColor=#dae8fc;strokeColor=#6c8ebf;fontStyle=0" parent="uxgWOtZFFa0mFMytvNgW-1" vertex="1">
          <mxGeometry x="740" y="1013" width="140" height="70" as="geometry" />
        </mxCell>
        <mxCell id="uxgWOtZFFa0mFMytvNgW-57" value="&amp;lt;&amp;lt;extend&amp;gt;&amp;gt;" style="html=1;verticalAlign=bottom;labelBackgroundColor=none;endArrow=open;endFill=0;dashed=1;rounded=0;entryX=1;entryY=1;entryDx=0;entryDy=0;" parent="uxgWOtZFFa0mFMytvNgW-1" source="uxgWOtZFFa0mFMytvNgW-56" target="uxgWOtZFFa0mFMytvNgW-31" edge="1">
          <mxGeometry width="160" relative="1" as="geometry">
            <mxPoint x="196" y="611" as="sourcePoint" />
            <mxPoint x="242" y="668" as="targetPoint" />
          </mxGeometry>
        </mxCell>
        <mxCell id="uxgWOtZFFa0mFMytvNgW-55" value="&lt;span&gt;Cadastrar&lt;/span&gt;&lt;div&gt;&lt;span&gt;CategoriaImovel&lt;/span&gt;&lt;/div&gt;" style="ellipse;whiteSpace=wrap;html=1;fillColor=#f8cecc;strokeColor=#b85450;fontStyle=0" parent="uxgWOtZFFa0mFMytvNgW-1" vertex="1">
          <mxGeometry x="13" y="764" width="140" height="70" as="geometry" />
        </mxCell>
        <mxCell id="uxgWOtZFFa0mFMytvNgW-62" value="Pesquisar&lt;div&gt;PublicacaoImovel&lt;/div&gt;" style="ellipse;whiteSpace=wrap;html=1;fillColor=#d80073;strokeColor=#A50040;fontColor=#ffffff;" parent="uxgWOtZFFa0mFMytvNgW-1" vertex="1">
          <mxGeometry x="710" y="421" width="140" height="70" as="geometry" />
        </mxCell>
        <mxCell id="uxgWOtZFFa0mFMytvNgW-63" value="&amp;lt;&amp;lt;extend&amp;gt;&amp;gt;" style="html=1;verticalAlign=bottom;labelBackgroundColor=none;endArrow=open;endFill=0;dashed=1;rounded=0;exitX=1;exitY=0.5;exitDx=0;exitDy=0;" parent="uxgWOtZFFa0mFMytvNgW-1" source="uxgWOtZFFa0mFMytvNgW-62" target="uxgWOtZFFa0mFMytvNgW-22" edge="1">
          <mxGeometry width="160" relative="1" as="geometry">
            <mxPoint x="531.5" y="690" as="sourcePoint" />
            <mxPoint x="499.5" y="753" as="targetPoint" />
          </mxGeometry>
        </mxCell>
        <mxCell id="uxgWOtZFFa0mFMytvNgW-65" value="&lt;span&gt;&lt;span&gt;Modificar&lt;/span&gt;&lt;/span&gt;&lt;div&gt;&lt;span&gt;&lt;span&gt;EstadoPublicacao&lt;/span&gt;&lt;/span&gt;&lt;/div&gt;" style="ellipse;whiteSpace=wrap;html=1;fillColor=#f8cecc;strokeColor=#b85450;fontStyle=0" parent="uxgWOtZFFa0mFMytvNgW-1" vertex="1">
          <mxGeometry x="203" y="575" width="140" height="70" as="geometry" />
        </mxCell>
        <mxCell id="uxgWOtZFFa0mFMytvNgW-58" value="&lt;span&gt;Ver&lt;/span&gt;&lt;div&gt;&lt;span&gt;PublicacaoImovel&lt;/span&gt;&lt;/div&gt;" style="ellipse;whiteSpace=wrap;html=1;fillColor=#dae8fc;strokeColor=#6c8ebf;fontStyle=0" parent="uxgWOtZFFa0mFMytvNgW-1" vertex="1">
          <mxGeometry x="382" y="822" width="140" height="70" as="geometry" />
        </mxCell>
        <mxCell id="uxgWOtZFFa0mFMytvNgW-70" value="Fazer&lt;div&gt;SolicitacaoVisita&lt;/div&gt;" style="ellipse;whiteSpace=wrap;html=1;fillColor=#d5e8d4;strokeColor=#82b366;" parent="uxgWOtZFFa0mFMytvNgW-1" vertex="1">
          <mxGeometry x="537" y="697" width="140" height="70" as="geometry" />
        </mxCell>
        <mxCell id="uxgWOtZFFa0mFMytvNgW-77" value="Editar&lt;div&gt;permissão&lt;/div&gt;" style="ellipse;whiteSpace=wrap;html=1;fillColor=#fff2cc;strokeColor=#d6b656;" parent="uxgWOtZFFa0mFMytvNgW-1" vertex="1">
          <mxGeometry x="286" y="40" width="140" height="70" as="geometry" />
        </mxCell>
        <mxCell id="uxgWOtZFFa0mFMytvNgW-78" value="&amp;lt;&amp;lt;extend&amp;gt;&amp;gt;" style="html=1;verticalAlign=bottom;labelBackgroundColor=none;endArrow=open;endFill=0;dashed=1;rounded=0;entryX=1;entryY=0.5;entryDx=0;entryDy=0;" parent="uxgWOtZFFa0mFMytvNgW-1" source="uxgWOtZFFa0mFMytvNgW-77" target="FGOciUeCJHYGwHbxiSey-7" edge="1">
          <mxGeometry x="-0.2343" y="8" width="160" relative="1" as="geometry">
            <mxPoint x="129" y="179" as="sourcePoint" />
            <mxPoint x="112" y="163" as="targetPoint" />
            <mxPoint as="offset" />
          </mxGeometry>
        </mxCell>
        <mxCell id="uxgWOtZFFa0mFMytvNgW-79" value="Classificar&lt;div&gt;Corretor&lt;/div&gt;" style="ellipse;whiteSpace=wrap;html=1;fillColor=#d5e8d4;strokeColor=#82b366;" parent="uxgWOtZFFa0mFMytvNgW-1" vertex="1">
          <mxGeometry x="737" y="908" width="140" height="70" as="geometry" />
        </mxCell>
        <mxCell id="uxgWOtZFFa0mFMytvNgW-85" value="Ver&lt;div&gt;Perfil&lt;/div&gt;" style="ellipse;whiteSpace=wrap;html=1;fillColor=#f8cecc;strokeColor=#b85450;fontStyle=0" parent="uxgWOtZFFa0mFMytvNgW-1" vertex="1">
          <mxGeometry x="348" y="435" width="140" height="70" as="geometry" />
        </mxCell>
        <mxCell id="uxgWOtZFFa0mFMytvNgW-87" value="Ver&lt;div&gt;Contratos&lt;/div&gt;" style="ellipse;whiteSpace=wrap;html=1;fillColor=#fff2cc;strokeColor=#d6b656;" parent="uxgWOtZFFa0mFMytvNgW-1" vertex="1">
          <mxGeometry x="143" y="89" width="140" height="70" as="geometry" />
        </mxCell>
        <mxCell id="FGOciUeCJHYGwHbxiSey-1" value="&lt;span&gt;Fazer&lt;/span&gt;&lt;div&gt;&lt;span&gt;Login&lt;/span&gt;&lt;/div&gt;" style="ellipse;whiteSpace=wrap;html=1;fillColor=#d5e8d4;strokeColor=#82b366;fontStyle=0" parent="uxgWOtZFFa0mFMytvNgW-1" vertex="1">
          <mxGeometry x="504" y="435" width="140" height="70" as="geometry" />
        </mxCell>
        <mxCell id="FGOciUeCJHYGwHbxiSey-7" value="Ver&lt;div&gt;Funcionarios&lt;/div&gt;" style="ellipse;whiteSpace=wrap;html=1;fillColor=#fff2cc;strokeColor=#d6b656;" parent="uxgWOtZFFa0mFMytvNgW-1" vertex="1">
          <mxGeometry x="25" y="43" width="140" height="70" as="geometry" />
        </mxCell>
        <mxCell id="FGOciUeCJHYGwHbxiSey-15" value="&amp;lt;&amp;lt;extend&amp;gt;&amp;gt;" style="html=1;verticalAlign=bottom;labelBackgroundColor=none;endArrow=open;endFill=0;dashed=1;rounded=0;entryX=0;entryY=1;entryDx=0;entryDy=0;exitX=1;exitY=0;exitDx=0;exitDy=0;" parent="uxgWOtZFFa0mFMytvNgW-1" source="uxgWOtZFFa0mFMytvNgW-41" target="uxgWOtZFFa0mFMytvNgW-31" edge="1">
          <mxGeometry width="160" relative="1" as="geometry">
            <mxPoint x="295" y="905" as="sourcePoint" />
            <mxPoint x="322" y="974" as="targetPoint" />
          </mxGeometry>
        </mxCell>
        <mxCell id="FGOciUeCJHYGwHbxiSey-16" value="&amp;lt;&amp;lt;extend&amp;gt;&amp;gt;" style="html=1;verticalAlign=bottom;labelBackgroundColor=none;endArrow=open;endFill=0;dashed=1;rounded=0;entryX=0.5;entryY=1;entryDx=0;entryDy=0;exitX=0.5;exitY=0;exitDx=0;exitDy=0;" parent="uxgWOtZFFa0mFMytvNgW-1" source="uxgWOtZFFa0mFMytvNgW-42" target="uxgWOtZFFa0mFMytvNgW-31" edge="1">
          <mxGeometry width="160" relative="1" as="geometry">
            <mxPoint x="259" y="973" as="sourcePoint" />
            <mxPoint x="360" y="887" as="targetPoint" />
          </mxGeometry>
        </mxCell>
        <mxCell id="FGOciUeCJHYGwHbxiSey-23" value="Editar&lt;div&gt;Perfil&lt;/div&gt;" style="ellipse;whiteSpace=wrap;html=1;fillColor=#f8cecc;strokeColor=#b85450;fontStyle=0" parent="uxgWOtZFFa0mFMytvNgW-1" vertex="1">
          <mxGeometry x="348" y="552" width="140" height="70" as="geometry" />
        </mxCell>
        <mxCell id="FGOciUeCJHYGwHbxiSey-24" value="&amp;lt;&amp;lt;extend&amp;gt;&amp;gt;" style="html=1;verticalAlign=bottom;labelBackgroundColor=none;endArrow=open;endFill=0;dashed=1;rounded=0;entryX=0.5;entryY=1;entryDx=0;entryDy=0;exitX=0.5;exitY=0;exitDx=0;exitDy=0;" parent="uxgWOtZFFa0mFMytvNgW-1" source="FGOciUeCJHYGwHbxiSey-23" target="uxgWOtZFFa0mFMytvNgW-85" edge="1">
          <mxGeometry width="160" relative="1" as="geometry">
            <mxPoint x="200" y="626" as="sourcePoint" />
            <mxPoint x="237" y="561" as="targetPoint" />
          </mxGeometry>
        </mxCell>
        <mxCell id="FGOciUeCJHYGwHbxiSey-25" value="&lt;span&gt;Ver&lt;/span&gt;&lt;div&gt;&lt;span&gt;CategoriaImovel&lt;/span&gt;&lt;/div&gt;" style="ellipse;whiteSpace=wrap;html=1;fillColor=#f8cecc;strokeColor=#b85450;fontStyle=0" parent="uxgWOtZFFa0mFMytvNgW-1" vertex="1">
          <mxGeometry x="44" y="872" width="140" height="70" as="geometry" />
        </mxCell>
        <mxCell id="FGOciUeCJHYGwHbxiSey-27" value="&amp;lt;&amp;lt;include&amp;gt;&amp;gt;" style="html=1;verticalAlign=bottom;labelBackgroundColor=none;endArrow=open;endFill=0;dashed=1;rounded=0;exitX=0.5;exitY=1;exitDx=0;exitDy=0;entryX=0.5;entryY=0;entryDx=0;entryDy=0;" parent="uxgWOtZFFa0mFMytvNgW-1" source="uxgWOtZFFa0mFMytvNgW-55" target="FGOciUeCJHYGwHbxiSey-25" edge="1">
          <mxGeometry width="160" relative="1" as="geometry">
            <mxPoint x="228" y="944" as="sourcePoint" />
            <mxPoint x="127" y="918" as="targetPoint" />
          </mxGeometry>
        </mxCell>
        <mxCell id="FGOciUeCJHYGwHbxiSey-28" value="&lt;span&gt;Editar&lt;/span&gt;&lt;div&gt;&lt;span&gt;CategoriaImovel&lt;/span&gt;&lt;/div&gt;" style="ellipse;whiteSpace=wrap;html=1;fillColor=#f8cecc;strokeColor=#b85450;fontStyle=0" parent="uxgWOtZFFa0mFMytvNgW-1" vertex="1">
          <mxGeometry x="19" y="995" width="140" height="70" as="geometry" />
        </mxCell>
        <mxCell id="FGOciUeCJHYGwHbxiSey-29" value="&amp;lt;&amp;lt;extend&amp;gt;&amp;gt;" style="html=1;verticalAlign=bottom;labelBackgroundColor=none;endArrow=open;endFill=0;dashed=1;rounded=0;entryX=0.5;entryY=1;entryDx=0;entryDy=0;exitX=0.5;exitY=0;exitDx=0;exitDy=0;" parent="uxgWOtZFFa0mFMytvNgW-1" source="FGOciUeCJHYGwHbxiSey-28" target="FGOciUeCJHYGwHbxiSey-25" edge="1">
          <mxGeometry width="160" relative="1" as="geometry">
            <mxPoint x="249" y="941" as="sourcePoint" />
            <mxPoint x="249" y="840" as="targetPoint" />
          </mxGeometry>
        </mxCell>
        <mxCell id="FGOciUeCJHYGwHbxiSey-30" value="&lt;span&gt;Apagar&lt;/span&gt;&lt;div&gt;&lt;span&gt;CategoriaImovel&lt;/span&gt;&lt;/div&gt;" style="ellipse;whiteSpace=wrap;html=1;fillColor=#f8cecc;strokeColor=#b85450;fontStyle=0" parent="uxgWOtZFFa0mFMytvNgW-1" vertex="1">
          <mxGeometry x="203" y="981" width="140" height="70" as="geometry" />
        </mxCell>
        <mxCell id="FGOciUeCJHYGwHbxiSey-31" value="&amp;lt;&amp;lt;extend&amp;gt;&amp;gt;" style="html=1;verticalAlign=bottom;labelBackgroundColor=none;endArrow=open;endFill=0;dashed=1;rounded=0;exitX=0;exitY=0;exitDx=0;exitDy=0;entryX=1;entryY=1;entryDx=0;entryDy=0;" parent="uxgWOtZFFa0mFMytvNgW-1" source="FGOciUeCJHYGwHbxiSey-30" target="FGOciUeCJHYGwHbxiSey-25" edge="1">
          <mxGeometry width="160" relative="1" as="geometry">
            <mxPoint x="396" y="943" as="sourcePoint" />
            <mxPoint x="305" y="941" as="targetPoint" />
          </mxGeometry>
        </mxCell>
        <mxCell id="FGOciUeCJHYGwHbxiSey-34" value="&lt;span&gt;Comentar&lt;/span&gt;&lt;div&gt;&lt;span&gt;PublicacaoImovel&lt;/span&gt;&lt;/div&gt;" style="ellipse;whiteSpace=wrap;html=1;fillColor=#dae8fc;strokeColor=#6c8ebf;fontStyle=0" parent="uxgWOtZFFa0mFMytvNgW-1" vertex="1">
          <mxGeometry x="198" y="875" width="140" height="70" as="geometry" />
        </mxCell>
        <mxCell id="FGOciUeCJHYGwHbxiSey-35" value="&amp;lt;&amp;lt;extend&amp;gt;&amp;gt;" style="html=1;verticalAlign=bottom;labelBackgroundColor=none;endArrow=open;endFill=0;dashed=1;rounded=0;entryX=0;entryY=1;entryDx=0;entryDy=0;exitX=1;exitY=0.5;exitDx=0;exitDy=0;" parent="uxgWOtZFFa0mFMytvNgW-1" source="FGOciUeCJHYGwHbxiSey-34" target="uxgWOtZFFa0mFMytvNgW-58" edge="1">
          <mxGeometry width="160" relative="1" as="geometry">
            <mxPoint x="331" y="738" as="sourcePoint" />
            <mxPoint x="322" y="623" as="targetPoint" />
          </mxGeometry>
        </mxCell>
        <mxCell id="FGOciUeCJHYGwHbxiSey-36" value="&amp;lt;&amp;lt;extend&amp;gt;&amp;gt;" style="html=1;verticalAlign=bottom;labelBackgroundColor=none;endArrow=open;endFill=0;dashed=1;rounded=0;entryX=1;entryY=1;entryDx=0;entryDy=0;exitX=0;exitY=0;exitDx=0;exitDy=0;" parent="uxgWOtZFFa0mFMytvNgW-1" source="uxgWOtZFFa0mFMytvNgW-31" target="uxgWOtZFFa0mFMytvNgW-58" edge="1">
          <mxGeometry width="160" relative="1" as="geometry">
            <mxPoint x="492" y="763" as="sourcePoint" />
            <mxPoint x="406" y="635" as="targetPoint" />
          </mxGeometry>
        </mxCell>
        <mxCell id="tdkB1YRlQaMixIxoZtIN-6" value="&lt;span&gt;&lt;span&gt;Fazer&lt;/span&gt;&lt;/span&gt;&lt;div&gt;&lt;span&gt;&lt;span&gt;Login&lt;/span&gt;&lt;/span&gt;&lt;/div&gt;" style="ellipse;whiteSpace=wrap;html=1;fillColor=#f8cecc;strokeColor=#b85450;fontStyle=0" parent="uxgWOtZFFa0mFMytvNgW-1" vertex="1">
          <mxGeometry x="457" y="611" width="140" height="70" as="geometry" />
        </mxCell>
        <mxCell id="tdkB1YRlQaMixIxoZtIN-7" value="&lt;span&gt;Notificar&lt;/span&gt;&lt;div&gt;&lt;span&gt;Clientes&lt;/span&gt;&lt;/div&gt;" style="ellipse;whiteSpace=wrap;html=1;fillColor=#f8cecc;strokeColor=#b85450;fontStyle=0" parent="uxgWOtZFFa0mFMytvNgW-1" vertex="1">
          <mxGeometry x="397" y="211" width="140" height="70" as="geometry" />
        </mxCell>
        <mxCell id="tdkB1YRlQaMixIxoZtIN-8" value="&amp;lt;&amp;lt;include&amp;gt;&amp;gt;" style="html=1;verticalAlign=bottom;labelBackgroundColor=none;endArrow=open;endFill=0;dashed=1;rounded=0;exitX=1;exitY=0;exitDx=0;exitDy=0;entryX=0;entryY=1;entryDx=0;entryDy=0;" parent="uxgWOtZFFa0mFMytvNgW-1" source="uxgWOtZFFa0mFMytvNgW-19" target="tdkB1YRlQaMixIxoZtIN-7" edge="1">
          <mxGeometry width="160" relative="1" as="geometry">
            <mxPoint x="112" y="403" as="sourcePoint" />
            <mxPoint x="113" y="345" as="targetPoint" />
          </mxGeometry>
        </mxCell>
        <mxCell id="tdkB1YRlQaMixIxoZtIN-9" value="&lt;span&gt;Ver&lt;/span&gt;&lt;div&gt;&lt;span&gt;PedidoPublicacaoImovel&lt;/span&gt;&lt;/div&gt;" style="ellipse;whiteSpace=wrap;html=1;fillColor=#f8cecc;strokeColor=#b85450;fontStyle=0" parent="uxgWOtZFFa0mFMytvNgW-1" vertex="1">
          <mxGeometry x="19" y="495" width="140" height="70" as="geometry" />
        </mxCell>
        <mxCell id="tdkB1YRlQaMixIxoZtIN-10" value="&amp;lt;&amp;lt;extend&amp;gt;&amp;gt;" style="html=1;verticalAlign=bottom;labelBackgroundColor=none;endArrow=open;endFill=0;dashed=1;rounded=0;entryX=0.5;entryY=0;entryDx=0;entryDy=0;exitX=0.5;exitY=1;exitDx=0;exitDy=0;" parent="uxgWOtZFFa0mFMytvNgW-1" source="uxgWOtZFFa0mFMytvNgW-37" target="tdkB1YRlQaMixIxoZtIN-9" edge="1">
          <mxGeometry x="-0.2343" y="8" width="160" relative="1" as="geometry">
            <mxPoint x="159" y="421" as="sourcePoint" />
            <mxPoint x="39" y="423" as="targetPoint" />
            <mxPoint as="offset" />
          </mxGeometry>
        </mxCell>
        <mxCell id="tdkB1YRlQaMixIxoZtIN-11" value="&amp;lt;&amp;lt;extend&amp;gt;&amp;gt;" style="html=1;verticalAlign=bottom;labelBackgroundColor=none;endArrow=open;endFill=0;dashed=1;rounded=0;entryX=0;entryY=1;entryDx=0;entryDy=0;exitX=1;exitY=0;exitDx=0;exitDy=0;" parent="uxgWOtZFFa0mFMytvNgW-1" source="tdkB1YRlQaMixIxoZtIN-9" target="uxgWOtZFFa0mFMytvNgW-19" edge="1">
          <mxGeometry x="-0.2343" y="8" width="160" relative="1" as="geometry">
            <mxPoint x="170" y="417" as="sourcePoint" />
            <mxPoint x="50" y="419" as="targetPoint" />
            <mxPoint as="offset" />
          </mxGeometry>
        </mxCell>
        <mxCell id="tdkB1YRlQaMixIxoZtIN-12" value="&lt;span&gt;Pesquisar&lt;/span&gt;&lt;div&gt;&lt;span&gt;PublicacaoImovel&lt;/span&gt;&lt;/div&gt;" style="ellipse;whiteSpace=wrap;html=1;fillColor=#dae8fc;strokeColor=#6c8ebf;fontStyle=0" parent="uxgWOtZFFa0mFMytvNgW-1" vertex="1">
          <mxGeometry x="269" y="694" width="140" height="70" as="geometry" />
        </mxCell>
        <mxCell id="tdkB1YRlQaMixIxoZtIN-13" value="&amp;lt;&amp;lt;extend&amp;gt;&amp;gt;" style="html=1;verticalAlign=bottom;labelBackgroundColor=none;endArrow=open;endFill=0;dashed=1;rounded=0;entryX=0.5;entryY=0;entryDx=0;entryDy=0;exitX=1;exitY=1;exitDx=0;exitDy=0;" parent="uxgWOtZFFa0mFMytvNgW-1" source="tdkB1YRlQaMixIxoZtIN-12" target="uxgWOtZFFa0mFMytvNgW-58" edge="1">
          <mxGeometry width="160" relative="1" as="geometry">
            <mxPoint x="503" y="815" as="sourcePoint" />
            <mxPoint x="568" y="803" as="targetPoint" />
          </mxGeometry>
        </mxCell>
        <mxCell id="tdkB1YRlQaMixIxoZtIN-15" value="Ver&lt;div&gt;&lt;span style=&quot;background-color: initial;&quot;&gt;Solicitacoes&lt;/span&gt;&lt;/div&gt;" style="ellipse;whiteSpace=wrap;html=1;fillColor=#e1d5e7;strokeColor=#9673a6;" parent="uxgWOtZFFa0mFMytvNgW-1" vertex="1">
          <mxGeometry x="649" y="54" width="140" height="70" as="geometry" />
        </mxCell>
        <mxCell id="tdkB1YRlQaMixIxoZtIN-20" value="Actualizar&lt;div&gt;ProprietarioImovel&lt;/div&gt;" style="ellipse;whiteSpace=wrap;html=1;fillColor=#dae8fc;strokeColor=#6c8ebf;fontStyle=0" parent="uxgWOtZFFa0mFMytvNgW-1" vertex="1">
          <mxGeometry x="429" y="340" width="140" height="70" as="geometry" />
        </mxCell>
        <mxCell id="uxgWOtZFFa0mFMytvNgW-13" style="rounded=0;orthogonalLoop=1;jettySize=auto;html=1;entryX=0;entryY=0.5;entryDx=0;entryDy=0;endArrow=none;endFill=0;exitX=1;exitY=0.3333333333333333;exitDx=0;exitDy=0;exitPerimeter=0;" parent="1" source="uxgWOtZFFa0mFMytvNgW-2" target="uxgWOtZFFa0mFMytvNgW-9" edge="1">
          <mxGeometry relative="1" as="geometry" />
        </mxCell>
        <mxCell id="uxgWOtZFFa0mFMytvNgW-15" style="rounded=0;orthogonalLoop=1;jettySize=auto;html=1;endArrow=block;endFill=1;entryX=0.5;entryY=0;entryDx=0;entryDy=0;entryPerimeter=0;" parent="1" source="uxgWOtZFFa0mFMytvNgW-2" target="uxgWOtZFFa0mFMytvNgW-3" edge="1">
          <mxGeometry relative="1" as="geometry">
            <mxPoint x="-340" y="450" as="targetPoint" />
          </mxGeometry>
        </mxCell>
        <mxCell id="uxgWOtZFFa0mFMytvNgW-88" style="rounded=0;orthogonalLoop=1;jettySize=auto;html=1;endArrow=none;endFill=0;exitX=1;exitY=0.3333333333333333;exitDx=0;exitDy=0;exitPerimeter=0;" parent="1" source="uxgWOtZFFa0mFMytvNgW-2" target="uxgWOtZFFa0mFMytvNgW-87" edge="1">
          <mxGeometry relative="1" as="geometry" />
        </mxCell>
        <mxCell id="FGOciUeCJHYGwHbxiSey-8" style="rounded=0;orthogonalLoop=1;jettySize=auto;html=1;entryX=0;entryY=0.5;entryDx=0;entryDy=0;exitX=1;exitY=0.3333333333333333;exitDx=0;exitDy=0;exitPerimeter=0;endArrow=none;endFill=0;" parent="1" source="uxgWOtZFFa0mFMytvNgW-2" target="FGOciUeCJHYGwHbxiSey-7" edge="1">
          <mxGeometry relative="1" as="geometry" />
        </mxCell>
        <mxCell id="uxgWOtZFFa0mFMytvNgW-2" value="&lt;span style=&quot;font-weight: 700; text-wrap: wrap;&quot;&gt;Gerente&lt;/span&gt;" style="shape=umlActor;verticalLabelPosition=bottom;verticalAlign=top;html=1;fillColor=#fff2cc;strokeColor=#d6b656;" parent="1" vertex="1">
          <mxGeometry x="-349" y="19" width="30" height="60" as="geometry" />
        </mxCell>
        <mxCell id="uxgWOtZFFa0mFMytvNgW-21" style="rounded=0;orthogonalLoop=1;jettySize=auto;html=1;entryX=0;entryY=1;entryDx=0;entryDy=0;exitX=1;exitY=0.3333333333333333;exitDx=0;exitDy=0;exitPerimeter=0;endArrow=none;endFill=0;" parent="1" source="uxgWOtZFFa0mFMytvNgW-3" target="tdkB1YRlQaMixIxoZtIN-9" edge="1">
          <mxGeometry relative="1" as="geometry" />
        </mxCell>
        <mxCell id="uxgWOtZFFa0mFMytvNgW-27" style="rounded=0;orthogonalLoop=1;jettySize=auto;html=1;entryX=0;entryY=0.5;entryDx=0;entryDy=0;exitX=1;exitY=0.3333333333333333;exitDx=0;exitDy=0;exitPerimeter=0;endArrow=none;endFill=0;" parent="1" source="uxgWOtZFFa0mFMytvNgW-3" target="tdkB1YRlQaMixIxoZtIN-20" edge="1">
          <mxGeometry relative="1" as="geometry" />
        </mxCell>
        <mxCell id="uxgWOtZFFa0mFMytvNgW-86" style="rounded=0;orthogonalLoop=1;jettySize=auto;html=1;endArrow=none;endFill=0;" parent="1" target="uxgWOtZFFa0mFMytvNgW-85" edge="1">
          <mxGeometry relative="1" as="geometry">
            <mxPoint x="-316" y="482" as="sourcePoint" />
          </mxGeometry>
        </mxCell>
        <mxCell id="FGOciUeCJHYGwHbxiSey-2" style="rounded=0;orthogonalLoop=1;jettySize=auto;html=1;entryX=0;entryY=0.5;entryDx=0;entryDy=0;endArrow=none;endFill=0;exitX=1;exitY=0.3333333333333333;exitDx=0;exitDy=0;exitPerimeter=0;" parent="1" source="uxgWOtZFFa0mFMytvNgW-3" target="tdkB1YRlQaMixIxoZtIN-6" edge="1">
          <mxGeometry relative="1" as="geometry" />
        </mxCell>
        <mxCell id="FGOciUeCJHYGwHbxiSey-19" style="rounded=0;orthogonalLoop=1;jettySize=auto;html=1;entryX=0;entryY=0.5;entryDx=0;entryDy=0;endArrow=none;endFill=0;exitX=1;exitY=0.3333333333333333;exitDx=0;exitDy=0;exitPerimeter=0;" parent="1" source="uxgWOtZFFa0mFMytvNgW-3" target="uxgWOtZFFa0mFMytvNgW-58" edge="1">
          <mxGeometry relative="1" as="geometry" />
        </mxCell>
        <mxCell id="uxgWOtZFFa0mFMytvNgW-3" value="&lt;span style=&quot;font-weight: 700; text-wrap: wrap;&quot;&gt;Corretor&lt;/span&gt;" style="shape=umlActor;verticalLabelPosition=bottom;verticalAlign=top;html=1;fillColor=#f8cecc;strokeColor=#b85450;" parent="1" vertex="1">
          <mxGeometry x="-350" y="462" width="30" height="60" as="geometry" />
        </mxCell>
        <mxCell id="uxgWOtZFFa0mFMytvNgW-20" style="rounded=0;orthogonalLoop=1;jettySize=auto;html=1;exitX=0;exitY=0.3333333333333333;exitDx=0;exitDy=0;exitPerimeter=0;endArrow=none;endFill=0;" parent="1" source="uxgWOtZFFa0mFMytvNgW-4" target="uxgWOtZFFa0mFMytvNgW-18" edge="1">
          <mxGeometry relative="1" as="geometry" />
        </mxCell>
        <mxCell id="FGOciUeCJHYGwHbxiSey-4" style="rounded=0;orthogonalLoop=1;jettySize=auto;html=1;entryX=1;entryY=0;entryDx=0;entryDy=0;endArrow=none;endFill=0;exitX=0;exitY=0.3333333333333333;exitDx=0;exitDy=0;exitPerimeter=0;" parent="1" source="uxgWOtZFFa0mFMytvNgW-4" target="FGOciUeCJHYGwHbxiSey-1" edge="1">
          <mxGeometry relative="1" as="geometry" />
        </mxCell>
        <mxCell id="uxgWOtZFFa0mFMytvNgW-4" value="&lt;span style=&quot;font-weight: 700; text-wrap: wrap;&quot;&gt;ClienteProprietario&lt;/span&gt;" style="shape=umlActor;verticalLabelPosition=bottom;verticalAlign=top;html=1;fillColor=#e1d5e7;strokeColor=#9673a6;" parent="1" vertex="1">
          <mxGeometry x="893" y="-10" width="30" height="60" as="geometry" />
        </mxCell>
        <mxCell id="uxgWOtZFFa0mFMytvNgW-26" style="rounded=0;orthogonalLoop=1;jettySize=auto;html=1;entryX=1;entryY=0.5;entryDx=0;entryDy=0;exitX=0;exitY=0.3333333333333333;exitDx=0;exitDy=0;exitPerimeter=0;endArrow=none;endFill=0;" parent="1" source="uxgWOtZFFa0mFMytvNgW-4" target="uxgWOtZFFa0mFMytvNgW-25" edge="1">
          <mxGeometry relative="1" as="geometry" />
        </mxCell>
        <mxCell id="uxgWOtZFFa0mFMytvNgW-81" style="rounded=0;orthogonalLoop=1;jettySize=auto;html=1;entryX=1;entryY=0.5;entryDx=0;entryDy=0;endArrow=none;endFill=0;exitX=0;exitY=0.3333333333333333;exitDx=0;exitDy=0;exitPerimeter=0;" parent="1" source="uxgWOtZFFa0mFMytvNgW-5" target="uxgWOtZFFa0mFMytvNgW-79" edge="1">
          <mxGeometry relative="1" as="geometry" />
        </mxCell>
        <mxCell id="FGOciUeCJHYGwHbxiSey-3" style="rounded=0;orthogonalLoop=1;jettySize=auto;html=1;entryX=1;entryY=1;entryDx=0;entryDy=0;endArrow=none;endFill=0;exitX=0;exitY=0.3333333333333333;exitDx=0;exitDy=0;exitPerimeter=0;" parent="1" source="uxgWOtZFFa0mFMytvNgW-5" target="FGOciUeCJHYGwHbxiSey-1" edge="1">
          <mxGeometry relative="1" as="geometry" />
        </mxCell>
        <mxCell id="FGOciUeCJHYGwHbxiSey-20" style="rounded=0;orthogonalLoop=1;jettySize=auto;html=1;entryX=1;entryY=0.5;entryDx=0;entryDy=0;endArrow=none;endFill=0;exitX=0;exitY=0.3333333333333333;exitDx=0;exitDy=0;exitPerimeter=0;" parent="1" source="uxgWOtZFFa0mFMytvNgW-5" target="uxgWOtZFFa0mFMytvNgW-58" edge="1">
          <mxGeometry relative="1" as="geometry" />
        </mxCell>
        <mxCell id="FGOciUeCJHYGwHbxiSey-21" style="rounded=0;orthogonalLoop=1;jettySize=auto;html=1;entryX=1;entryY=1;entryDx=0;entryDy=0;endArrow=none;endFill=0;exitX=0;exitY=0.3333333333333333;exitDx=0;exitDy=0;exitPerimeter=0;" parent="1" source="uxgWOtZFFa0mFMytvNgW-5" target="uxgWOtZFFa0mFMytvNgW-70" edge="1">
          <mxGeometry relative="1" as="geometry" />
        </mxCell>
        <mxCell id="tdkB1YRlQaMixIxoZtIN-4" style="rounded=0;orthogonalLoop=1;jettySize=auto;html=1;entryX=1;entryY=1;entryDx=0;entryDy=0;endArrow=none;endFill=0;exitX=0;exitY=0.3333333333333333;exitDx=0;exitDy=0;exitPerimeter=0;" parent="1" source="uxgWOtZFFa0mFMytvNgW-5" target="uxgWOtZFFa0mFMytvNgW-85" edge="1">
          <mxGeometry relative="1" as="geometry" />
        </mxCell>
        <mxCell id="uxgWOtZFFa0mFMytvNgW-5" value="&lt;span style=&quot;font-weight: 700; text-wrap: wrap;&quot;&gt;ClienteSolicitante&lt;/span&gt;" style="shape=umlActor;verticalLabelPosition=bottom;verticalAlign=top;html=1;fillColor=#d5e8d4;strokeColor=#82b366;" parent="1" vertex="1">
          <mxGeometry x="893" y="644" width="30" height="60" as="geometry" />
        </mxCell>
        <mxCell id="uxgWOtZFFa0mFMytvNgW-64" style="rounded=0;orthogonalLoop=1;jettySize=auto;html=1;entryX=0;entryY=0;entryDx=0;entryDy=0;exitX=1;exitY=0.3333333333333333;exitDx=0;exitDy=0;exitPerimeter=0;endArrow=none;endFill=0;" parent="1" source="uxgWOtZFFa0mFMytvNgW-3" target="uxgWOtZFFa0mFMytvNgW-55" edge="1">
          <mxGeometry relative="1" as="geometry" />
        </mxCell>
        <mxCell id="uxgWOtZFFa0mFMytvNgW-66" style="rounded=0;orthogonalLoop=1;jettySize=auto;html=1;entryX=0;entryY=0.5;entryDx=0;entryDy=0;exitX=1;exitY=0.3333333333333333;exitDx=0;exitDy=0;exitPerimeter=0;endArrow=none;endFill=0;" parent="1" source="uxgWOtZFFa0mFMytvNgW-3" target="uxgWOtZFFa0mFMytvNgW-65" edge="1">
          <mxGeometry relative="1" as="geometry">
            <mxPoint x="-329" y="663" as="sourcePoint" />
          </mxGeometry>
        </mxCell>
        <mxCell id="uxgWOtZFFa0mFMytvNgW-69" style="rounded=0;orthogonalLoop=1;jettySize=auto;html=1;exitX=0;exitY=0.3333333333333333;exitDx=0;exitDy=0;exitPerimeter=0;endArrow=none;endFill=0;entryX=0.5;entryY=0;entryDx=0;entryDy=0;" parent="1" source="uxgWOtZFFa0mFMytvNgW-4" target="uxgWOtZFFa0mFMytvNgW-22" edge="1">
          <mxGeometry relative="1" as="geometry">
            <mxPoint x="400" y="121" as="sourcePoint" />
            <mxPoint x="306.63453760259426" y="-48.417085132738976" as="targetPoint" />
          </mxGeometry>
        </mxCell>
        <mxCell id="FGOciUeCJHYGwHbxiSey-14" style="rounded=0;orthogonalLoop=1;jettySize=auto;html=1;entryX=1;entryY=0.5;entryDx=0;entryDy=0;endArrow=none;endFill=0;exitX=0;exitY=0.3333333333333333;exitDx=0;exitDy=0;exitPerimeter=0;" parent="1" source="FGOciUeCJHYGwHbxiSey-10" target="uxgWOtZFFa0mFMytvNgW-22" edge="1">
          <mxGeometry relative="1" as="geometry" />
        </mxCell>
        <mxCell id="pLplR0KY7bpChs8TC4EC-1" style="rounded=0;orthogonalLoop=1;jettySize=auto;html=1;entryX=1;entryY=0.5;entryDx=0;entryDy=0;endArrow=none;endFill=0;exitX=0;exitY=0.3333333333333333;exitDx=0;exitDy=0;exitPerimeter=0;" parent="1" source="FGOciUeCJHYGwHbxiSey-10" target="uxgWOtZFFa0mFMytvNgW-6" edge="1">
          <mxGeometry relative="1" as="geometry" />
        </mxCell>
        <mxCell id="FGOciUeCJHYGwHbxiSey-10" value="&lt;span style=&quot;color: rgb(0, 0, 0); font-weight: 700; text-wrap: wrap;&quot;&gt;Visitante&lt;/span&gt;" style="shape=umlActor;verticalLabelPosition=bottom;verticalAlign=top;html=1;outlineConnect=0;fillColor=#d80073;fontColor=#ffffff;strokeColor=#A50040;" parent="1" vertex="1">
          <mxGeometry x="915" y="281" width="30" height="60" as="geometry" />
        </mxCell>
        <mxCell id="tdkB1YRlQaMixIxoZtIN-5" style="rounded=0;orthogonalLoop=1;jettySize=auto;html=1;entryX=0;entryY=0.3333333333333333;entryDx=0;entryDy=0;entryPerimeter=0;endArrow=none;endFill=0;" parent="1" source="uxgWOtZFFa0mFMytvNgW-85" target="uxgWOtZFFa0mFMytvNgW-4" edge="1">
          <mxGeometry relative="1" as="geometry" />
        </mxCell>
        <mxCell id="tdkB1YRlQaMixIxoZtIN-16" style="rounded=0;orthogonalLoop=1;jettySize=auto;html=1;exitX=0;exitY=0.3333333333333333;exitDx=0;exitDy=0;exitPerimeter=0;endArrow=none;endFill=0;" parent="1" source="uxgWOtZFFa0mFMytvNgW-4" target="tdkB1YRlQaMixIxoZtIN-15" edge="1">
          <mxGeometry relative="1" as="geometry">
            <mxPoint x="631" y="54" as="sourcePoint" />
          </mxGeometry>
        </mxCell>
      </root>
    </mxGraphModel>
  </diagram>
</mxfile>
